<?xml version="1.0" encoding="UTF-8" standalone="no"?>
<!-- Generator: Adobe Illustrator 16.0.3, SVG Export Plug-In . SVG Version: 6.00 Build 0)  -->
<svg version="1.1" xmlns="http://www.w3.org/2000/svg" xmlns:svg="http://www.w3.org/2000/svg" width="612" height="792" x="0" y="0" viewBox="0 0 612 792">
	<g fill-rule="evenodd">
		<!-- White Colour Fill -->
		<g fill="#FEFEFE">
			<path d="M226.571,288.768c39.632-21.775,79.273-43.532,118.894-65.328 c52.588-28.931,105.16-57.893,157.74-86.837c1.443-0.794,2.911-1.545,4.854-2.574c-2.163,14.277-4.237,28.063-6.345,41.843 c-1.912,12.502-3.97,24.982-5.716,37.508c-0.454,3.265-1.924,4.704-4.918,5.855c-72.405,27.857-144.769,55.822-217.138,83.775 c-1.957,0.756-3.885,1.585-5.827,2.381c0.149,0.418,0.297,0.837,0.446,1.255c97.315-32.29,194.629-64.58,291.855-96.84 c1.35,1.184,0.521,2.324,0.224,3.322c-6.5,21.818-13.102,43.605-19.501,65.453c-0.822,2.809-2.152,3.913-4.943,4.621 C415.837,313.726,295.5,344.336,175.18,375.014c-3.081,0.785-5.668,0.542-8.586-0.654c-24.129-9.898-48.321-19.645-72.489-29.449 c-1.651-0.67-3.26-1.44-5.332-2.361c119.354-88.777,238.351-177.288,358.201-266.435c-1.121,9.652-2.078,18.294-3.138,26.923 c-2.171,17.682-4.502,35.345-6.504,53.044c-0.35,3.101-1.771,4.552-4.197,6.017c-67.789,40.91-135.541,81.882-203.292,122.855 c-1.407,0.851-2.727,1.844-4.088,2.771c-4.298,2.479-8.597,4.958-12.895,7.437c0.194,0.335,0.389,0.671,0.583,1.006 C217.82,293.699,222.196,291.233,226.571,288.768z M211.809,296.431c-0.31-0.122-0.598-0.326-0.875-0.313 c-0.185,0.01-0.353,0.331-0.528,0.512c0.29,0.12,0.582,0.331,0.87,0.326C211.454,296.954,211.626,296.623,211.809,296.431z"/>
		</g>
		<!-- Orange Colour Fill -->
		<g fill="#F38020">
			<path d="M587.87,296.959c-2.538,48.228-5.111,96.453-7.603,144.684 c-1.512,29.273-2.861,58.555-4.347,87.829c-1.25,24.615-2.686,49.223-3.775,73.845c-0.148,3.34-2.086,4.135-4.264,5.254 c-41.453,21.283-82.912,42.557-124.361,63.849c-52.994,27.224-106.005,54.417-158.927,81.78c-4.1,2.12-5.515,1.936-6.996-2.792 c-36.754-117.271-73.645-234.499-110.666-351.687c-1.445-4.573-0.377-5.77,3.993-6.848 c125.607-30.983,251.181-62.103,376.76-93.199c11.783-2.918,23.625-5.623,35.321-8.853c4.468-1.234,5.736-0.185,4.97,4.144 c-0.115,0.646-0.017,1.329-0.017,1.995C587.93,296.96,587.899,296.959,587.87,296.959z M471.954,511.033 c-0.023-0.252-0.047-0.504-0.069-0.756c-0.156,0.033-0.313,0.067-0.468,0.101c0.198,0.204,0.396,0.409,0.594,0.613 c0.921,1.568,1.854,3.13,2.76,4.707c7.663,13.347,6.7,29.126-2.523,38.551c-3.551,3.629-7.542,7.004-13.159,4.942 c-5.699-2.092-7.803-6.891-8.26-12.563c-0.67-8.313,0.705-16.253,4.53-23.717c2.36-4.607,4.428-9.328,5.204-14.496 c1.226-8.162,0.027-15.716-6.061-23.35c0.648,8.086-1.48,13.688-8.014,16.674c-4.596,2.101-8.917,0.704-12.501-2.438 c-4.862-4.262-5.132-9.99-3.596-15.672c1.369-5.064,4.483-9.374,10.174-9.666c5.342-0.274,4.589-2.147,2.722-5.629 c-4.258-7.942-10.531-14.114-17.041-20.097c-5.046-4.637-9.729-9.588-13.709-15.171c-17.396-24.399-11.568-50.335,14.597-65.058 c1.422-0.8,2.847-1.594,4.27-2.392c-16.423,3.042-30.747,10.131-42.452,21.772c-14.73,14.649-16.922,32.595-6.74,50.663 c2.871,5.094,6.447,9.682,10.134,14.216c3.551,4.368,3.539,10.267,0.415,14.36c-3.115,4.08-9.409,5.584-14.498,3.461 c-4.191-1.749-7.056-4.976-9.322-8.729c-1.856-3.075-3.424-6.326-5.374-9.976c-4.501,7.592-4.64,15.036-2.156,22.587 c3.269,9.937,9.952,17.211,18.764,22.561c6.928,4.207,11.381,10.127,13.169,18.004c2.038,8.974,1.806,17.906-1.529,26.518 c-5.657,14.608-20.16,20.102-33.9,12.936c-8.295-4.326-13.361-11.339-15.846-20.239c-2.11-7.559-1.282-15.11,0.999-23.534 c-12.169,7.522-21.231,16.34-25.148,29.526c-6.013,20.238,3.073,46.427,21.077,60.188c18.114,13.845,38.429,20.646,61.464,19.423 c14.788-0.786,26.909,5.045,35.872,17.064c0.72,0.965,1.138,2.464,3.232,2.514c3.236-10.3,9.928-17.67,19.878-22.194 c5.6-2.546,11.074-5.395,16.463-8.365c8.925-4.92,16.282-11.473,20.992-20.743c15.51-30.53,0.962-59.067-22.237-76.055 C473.885,511.008,473.02,510.371,471.954,511.033z"/>
			<path d="M183.565,658.096c-5.436,0-10.924-0.152-16.399,0.06 c-3.078,0.119-3.381-2.125-4.21-4.021c-12.211-27.891-24.427-55.779-36.604-83.685c-32.538-74.567-65.027-149.156-97.685-223.67 c-1.49-3.399-0.842-5.165,1.565-7.579c93.542-93.811,187.018-187.686,280.508-281.547c1.045-1.05,2.155-2.034,3.313-3.123 c1.47,1.56,0.755,3.288,0.758,4.807c0.053,29.662-0.044,59.325,0.139,88.986c0.024,3.964-1.298,6.286-4.395,8.589 c-80.195,59.639-160.306,119.391-240.508,179.02c-3.308,2.459-4.123,4.325-2.572,8.472 c38.461,102.825,76.733,205.721,115.012,308.613C183.049,654.524,184.07,655.972,183.565,658.096z"/>
		</g>
		<!-- Dark Grey Outline Fill -->
		<g fill="#232422">
			<path d="M332.224,12.313c0,41.892,0,83.783,0,127.118 c46.062-34.248,91.179-67.793,137.294-102.081c-4.28,35.257-8.421,69.36-12.694,104.563c24.921-13.699,49.116-27,74.188-40.782 c-5.452,35.4-10.771,69.93-16.194,105.148c24.62-8.157,48.63-16.112,73.508-24.355c-9.614,32.265-19.029,63.864-28.755,96.503 c15.983-3.924,31.324-7.69,47.406-11.64c-0.455,9.698-0.857,19.051-1.338,28.398c-1.869,36.276-3.763,72.551-5.646,108.826 c-2.221,42.765-4.442,85.529-6.658,128.294c-1.396,26.957-2.845,53.912-4.091,80.876c-0.147,3.193-1.032,4.929-3.985,6.442 c-104.284,53.446-208.521,106.982-312.716,160.604c-3.043,1.566-4.234,1.475-4.958-2.03c-1.088-5.268-3.813-9.857-6.512-14.463 c-16.399-27.979-32.766-55.979-49.004-84.052c-1.615-2.793-3.275-3.883-6.583-3.84c-15.997,0.205-31.999,0.019-47.997,0.157 c-3,0.026-4.643-0.599-5.966-3.636C103.547,562.234,55.477,452.147,7.293,342.109c-1.422-3.248-0.15-4.697,1.823-6.676 c45.427-45.553,90.813-91.146,136.209-136.729c60.332-60.578,120.669-121.15,180.991-181.738c1.64-1.646,3.127-3.445,4.686-5.174 C331.409,11.966,331.816,12.139,332.224,12.313z M226.571,288.768c-0.272-0.349-0.544-0.696-0.816-1.044 c1.361-0.927,2.681-1.92,4.088-2.771c67.75-40.974,135.502-81.945,203.292-122.855c2.427-1.465,3.848-2.916,4.197-6.017 c2.002-17.699,4.333-35.362,6.504-53.044c1.06-8.629,2.017-17.271,3.138-26.923c-119.85,89.146-238.846,177.657-358.201,266.435 c2.072,0.921,3.681,1.691,5.332,2.361c24.168,9.805,48.36,19.551,72.489,29.449c2.917,1.196,5.505,1.439,8.586,0.654 c120.32-30.678,240.657-61.288,361.016-91.812c2.791-0.708,4.121-1.813,4.943-4.621c6.399-21.848,13.001-43.635,19.501-65.453 c0.298-0.998,1.126-2.139-0.224-3.322c-97.226,32.26-194.54,64.55-291.855,96.84c-0.149-0.418-0.297-0.837-0.446-1.255 c1.941-0.796,3.87-1.625,5.827-2.381c72.369-27.953,144.732-55.918,217.138-83.775c2.994-1.151,4.464-2.591,4.918-5.855 c1.746-12.525,3.804-25.006,5.716-37.508c2.107-13.78,4.182-27.565,6.345-41.843c-1.942,1.029-3.41,1.78-4.854,2.574 c-52.58,28.944-105.152,57.906-157.74,86.837C305.845,245.235,266.203,266.992,226.571,288.768z M587.87,296.959 c0.029,0,0.06,0.001,0.089,0.001c0-0.666-0.099-1.35,0.017-1.995c0.767-4.328-0.502-5.378-4.97-4.144 c-11.696,3.229-23.538,5.935-35.321,8.853c-125.579,31.097-251.153,62.216-376.76,93.199c-4.37,1.078-5.438,2.274-3.993,6.848 c37.021,117.188,73.912,234.416,110.666,351.687c1.481,4.728,2.896,4.912,6.996,2.792c52.922-27.363,105.933-54.557,158.927-81.78 c41.449-21.292,82.908-42.565,124.361-63.849c2.178-1.119,4.115-1.914,4.264-5.254c1.09-24.622,2.525-49.229,3.775-73.845 c1.485-29.274,2.835-58.556,4.347-87.829C582.759,393.412,585.332,345.187,587.87,296.959z M183.565,658.096 c0.505-2.124-0.517-3.571-1.077-5.078c-38.279-102.893-76.551-205.788-115.012-308.613c-1.551-4.146-0.736-6.013,2.572-8.472 c80.202-59.629,160.313-119.381,240.508-179.02c3.097-2.303,4.419-4.625,4.395-8.589c-0.183-29.661-0.086-59.324-0.139-88.986 c-0.003-1.519,0.712-3.247-0.758-4.807c-1.158,1.089-2.269,2.073-3.313,3.123c-93.49,93.861-186.967,187.736-280.508,281.547 c-2.408,2.414-3.055,4.18-1.565,7.579c32.658,74.514,65.147,149.103,97.685,223.67c12.177,27.905,24.392,55.794,36.604,83.685 c0.829,1.896,1.132,4.14,4.21,4.021C172.641,657.943,178.13,658.096,183.565,658.096z"/>
			<path d="M471.952,511.034c1.067-0.663,1.933-0.026,2.706,0.54c23.199,16.987,37.747,45.524,22.237,76.055c-4.71,9.271-12.067,15.823-20.992,20.743c-5.389,2.971-10.863,5.819-16.463,8.365 c-9.95,4.524-16.642,11.895-19.878,22.194c-2.095-0.05-2.513-1.549-3.232-2.514c-8.963-12.02-21.084-17.851-35.872-17.064 c-23.035,1.224-43.35-5.578-61.464-19.423c-18.004-13.761-27.09-39.949-21.077-60.188c3.917-13.187,12.979-22.004,25.148-29.526 c-2.281,8.424-3.109,15.976-0.999,23.534c2.484,8.9,7.551,15.913,15.846,20.239c13.74,7.166,28.243,1.673,33.9-12.936 c3.335-8.611,3.567-17.544,1.529-26.518c-1.788-7.877-6.241-13.797-13.169-18.004c-8.812-5.35-15.495-12.624-18.764-22.561 c-2.483-7.551-2.345-14.995,2.156-22.587c1.95,3.649,3.518,6.9,5.374,9.976c2.267,3.754,5.131,6.98,9.322,8.729 c5.089,2.123,11.383,0.619,14.498-3.461c3.124-4.094,3.136-9.992-0.415-14.36c-3.687-4.534-7.263-9.122-10.134-14.216 c-10.182-18.068-7.99-36.014,6.74-50.663c11.705-11.642,26.029-18.73,42.452-21.772c-1.423,0.798-2.848,1.592-4.27,2.392 c-26.165,14.723-31.992,40.658-14.597,65.058c3.98,5.583,8.663,10.534,13.709,15.171c6.51,5.982,12.783,12.154,17.041,20.097 c1.867,3.481,2.62,5.354-2.722,5.629c-5.69,0.292-8.805,4.602-10.174,9.666c-1.536,5.682-1.267,11.41,3.596,15.672 c3.584,3.142,7.905,4.538,12.501,2.438c6.533-2.986,8.662-8.588,8.014-16.674c6.088,7.634,7.286,15.188,6.061,23.35 c-0.776,5.168-2.844,9.889-5.204,14.496c-3.825,7.464-5.2,15.404-4.53,23.717c0.457,5.673,2.561,10.472,8.26,12.563 c5.617,2.062,9.608-1.313,13.159-4.942c9.224-9.425,10.187-25.204,2.523-38.551c-0.905-1.577-1.839-3.139-2.76-4.707 L471.952,511.034z"/>
			<path d="M472.011,510.991c-0.198-0.204-0.396-0.409-0.594-0.613 c0.155-0.033,0.312-0.067,0.468-0.101c0.022,0.252,0.046,0.504,0.068,0.757C471.952,511.034,472.011,510.991,472.011,510.991z"/>
			<path d="M226.571,288.768c-4.375,2.466-8.751,4.932-13.127,7.398 c-0.194-0.335-0.389-0.671-0.583-1.006c4.298-2.479,8.596-4.958,12.895-7.437C226.027,288.071,226.299,288.419,226.571,288.768z"/>
			<path d="M211.809,296.431c-0.183,0.192-0.355,0.523-0.533,0.525 c-0.289,0.005-0.58-0.206-0.87-0.326c0.175-0.181,0.344-0.502,0.528-0.512C211.211,296.104,211.499,296.309,211.809,296.431z"/>
		</g>
	</g>
</svg>